<svg width="50" height="50" viewBox="0 0 50 50" fill="none" xmlns="http://www.w3.org/2000/svg">
<path fill-rule="evenodd" clip-rule="evenodd" d="M33.8812 20.6C33.9103 20.7128 33.9249 20.8961 33.9249 21.15C33.9249 23.1807 33.4145 25.141 32.3937 27.0307C31.3437 29.0333 29.8708 30.6269 27.9749 31.8115C25.9041 33.1371 23.527 33.8 20.8437 33.8C18.277 33.8 15.9291 33.1371 13.7999 31.8115C14.1208 31.8397 14.4853 31.8538 14.8937 31.8538C17.0228 31.8538 18.9333 31.2192 20.6249 29.95C19.6041 29.95 18.7072 29.6608 17.9343 29.0826C17.1614 28.5044 16.6291 27.7782 16.3374 26.9038C16.6291 26.932 16.9062 26.9461 17.1687 26.9461C17.577 26.9461 17.9853 26.9038 18.3937 26.8192C17.3437 26.5935 16.4687 26.0717 15.7687 25.2538C15.0687 24.4358 14.7187 23.5051 14.7187 22.4615V22.3769C15.3603 22.7435 16.0458 22.941 16.7749 22.9692C16.1624 22.5461 15.6666 22.0102 15.2874 21.3615C14.9083 20.7128 14.7187 20.0006 14.7187 19.225C14.7187 18.4493 14.9374 17.7089 15.3749 17.0038C16.5124 18.3858 17.9051 19.4858 19.5531 20.3038C21.201 21.1217 22.9583 21.573 24.8249 21.6576C24.7666 21.3192 24.7374 20.9807 24.7374 20.6423C24.7374 19.8525 24.9416 19.1121 25.3499 18.4211C25.7583 17.7301 26.3124 17.1871 27.0124 16.7923C27.7124 16.3974 28.4708 16.2 29.2874 16.2C29.9583 16.2 30.578 16.3269 31.1468 16.5807C31.7155 16.8346 32.2187 17.173 32.6562 17.5961C33.7062 17.3987 34.6833 17.0461 35.5874 16.5384C35.2374 17.582 34.5666 18.4 33.5749 18.9923C34.4499 18.8794 35.3249 18.6397 36.1999 18.273C35.5583 19.1756 34.7853 19.9512 33.8812 20.6Z" fill="#BDBDBD"/>
<rect x="0.5" y="0.5" width="49" height="49" rx="7.5" stroke="#4F4F4F"/>
</svg>
