<svg width="50" height="50" viewBox="0 0 50 50" fill="none" xmlns="http://www.w3.org/2000/svg">
<path d="M22.7599 28.4286V21.5714L28.5794 25L22.7599 28.4286ZM35.7318 19.4985C35.4742 18.5152 34.7153 17.7406 33.7514 17.4777C32.0047 17 24.9999 17 24.9999 17C24.9999 17 17.9952 17 16.2482 17.4777C15.2846 17.7406 14.5254 18.5152 14.2681 19.4985C13.7999 21.2809 13.7999 25 13.7999 25C13.7999 25 13.7999 28.7191 14.2681 30.5015C14.5254 31.4851 15.2846 32.2594 16.2482 32.5223C17.9952 33 24.9999 33 24.9999 33C24.9999 33 32.0047 33 33.7514 32.5223C34.7153 32.2594 35.4742 31.4851 35.7318 30.5015C36.1999 28.7191 36.1999 25 36.1999 25C36.1999 25 36.1999 21.2809 35.7318 19.4985Z" fill="#BDBDBD"/>
<rect x="0.5" y="0.5" width="49" height="49" rx="7.5" stroke="#4F4F4F"/>
</svg>
